<svg xmlns="http://www.w3.org/2000/svg" xmlns:xlink="http://www.w3.org/1999/xlink" id="Layer_1" x="0px" y="0px" width="254.9px" height="82.3px" viewBox="0 0 254.9 82.3" style="enable-background:new 0 0 254.9 82.3;" xml:space="preserve">
<style type="text/css">
	.st0{fill:#FFFFFF;}
</style>
<g>
	<g>
		<path class="st0" d="M81.4,41.2C81.4,19,63.4,1,41.2,1S1,19,1,41.2s18,40.2,40.2,40.2C63.4,81.3,81.4,63.3,81.4,41.2z M41.2,78.4    C20.6,78.4,4,61.7,3.9,41.2C4,20.6,20.6,3.9,41.2,3.9s37.2,16.7,37.2,37.3C78.4,61.7,61.8,78.4,41.2,78.4z"></path>
		<path class="st0" d="M72.8,73.1c-0.5-0.2-0.9-0.4-1.4-0.4s-1,0.1-1.4,0.4c-0.5,0.2-0.8,0.6-1.1,1.1c-0.3,0.5-0.4,0.9-0.4,1.4    s0.1,1,0.4,1.4c0.3,0.5,0.6,0.8,1.1,1.1c0.5,0.3,0.9,0.4,1.4,0.4s1-0.1,1.4-0.4c0.5-0.3,0.8-0.6,1.1-1.1c0.3-0.5,0.4-0.9,0.4-1.4    s-0.1-1-0.4-1.4C73.7,73.7,73.3,73.3,72.8,73.1z M73.5,76.8c-0.2,0.4-0.5,0.7-0.9,0.9c-0.4,0.2-0.8,0.3-1.2,0.3    c-0.4,0-0.8-0.1-1.2-0.3c-0.4-0.2-0.7-0.5-0.9-0.9S69,76,69,75.6s0.1-0.8,0.3-1.2c0.2-0.4,0.5-0.7,0.9-0.9    c0.4-0.2,0.8-0.3,1.2-0.3c0.4,0,0.8,0.1,1.2,0.3c0.4,0.2,0.7,0.5,0.9,0.9c0.2,0.4,0.3,0.8,0.3,1.2C73.8,76,73.7,76.4,73.5,76.8z"></path>
		<path class="st0" d="M71.9,76c-0.1-0.1-0.2-0.1-0.3-0.2c0.3,0,0.5-0.1,0.6-0.3c0.2-0.2,0.2-0.4,0.2-0.6s0-0.3-0.1-0.5    c-0.1-0.1-0.2-0.2-0.4-0.3C71.7,74,71.5,74,71.1,74H70v3.1h0.5v-1.3H71c0.2,0,0.3,0,0.4,0.1s0.3,0.3,0.5,0.7l0.3,0.5h0.6l-0.4-0.6    C72.2,76.3,72.1,76.1,71.9,76z M71.3,75.4h-0.6v-0.9h0.6c0.2,0,0.4,0,0.5,0.1c0.1,0,0.2,0.1,0.2,0.2s0.1,0.2,0.1,0.2    c0,0.1,0,0.3-0.2,0.3C71.8,75.4,71.6,75.4,71.3,75.4z"></path>
		<path class="st0" d="M74.9,34.5l-0.3,0.8h-9.3l1.8-5.2h6.6c-0.7-1.9-1.4-3.8-2.5-5.6C62,8,41.1,2.1,24.6,11.3    C14.3,17,8.1,27.3,7.1,38.2c0.2-0.4,0.4-0.8,0.7-1.1h10.7c-2.7,1.6-3,4.2-3.1,5.8c0,2.1,2.1,6,8.5,5.9c2.7,0,5.6-0.5,7.8-1.1    c-0.7-1.3-1.1-2.8-1.1-4.5c0-2.2,0.7-4.3,1.9-6.1H43c-2.3,1.5-3.1,3.8-3,6c0.1,3.2,3.3,4.8,7.5,4.8c1.3,0,2.3-0.2,2.7-0.3l2.1-5.4    h-6.6l1.8-5h15.2l-5,14.6C54.1,53.2,50.1,54,46,54c-6.6,0-11.8-2.1-14.1-5.9l-6.3,5.3C24.5,53.6,22.4,54,20,54    c-5.6,0-9.7-1.7-12-4.5c0.7,2.9,1.8,5.8,3.3,8.5c9.2,16.5,30.1,22.4,46.6,13.2C71.2,63.7,77.7,48.7,74.9,34.5z M9.1,35.3    c3.2-3.4,8.8-5.9,16.7-5.9c3.1,0,6.3,0.4,9.7,1.1l-1.8,4.9H9.1V35.3z M33.9,35.3c0.9-0.9,1.8-1.7,3-2.4c5.4-3.4,12.1-3.5,14.6-3.5    c3.8,0,5.2-0.1,13.7,0.6l-1.8,5.3H33.9z M68.6,53.2h-9.3l5.4-16.1H74L68.6,53.2z"></path>
	</g>
	<g>
		<rect x="87.8" y="21.2" class="st0" width="3.5" height="17.3"></rect>
		<path class="st0" d="M106.7,25.1c-1.5,0-2.5,0.6-3.3,2c-0.6-1.4-1.5-2-3.1-2c-1.4,0-2.6,0.7-3.3,2c0.1-0.4,0.1-0.6,0.1-1.3v-0.3    h-3.2v13.1h3.4v-8.3c0-1.7,0.5-2.4,1.7-2.4c0.8,0,1.3,0.5,1.3,1.5V30v0.3v8.4h3.3V30c0-1.5,0.6-2.2,1.7-2.2c1,0,1.3,0.5,1.3,2.4    v8.4h3.3v-9.3c0-1.9-0.2-2.7-0.9-3.3C108.6,25.4,107.7,25.1,106.7,25.1z"></path>
		<path class="st0" d="M118.6,25.1c-1.5,0-2.5,0.6-3.1,2.1c0.1-0.4,0.1-0.6,0.1-1.2v-0.5h-3.2v17.4h3.3v-4.2v-0.5c0-0.4,0-0.8,0-1    V37c0.6,1.2,1.5,1.8,2.8,1.8c1.2,0,2.2-0.4,2.8-1.3c0.9-1.2,1.3-2.8,1.3-5.8c0-1.9-0.1-3-0.5-4.1C121.5,26,120.3,25.1,118.6,25.1z     M117.4,36.3c-1.4,0-1.8-1-1.8-4.4v-0.2c0-3.1,0.5-4.1,1.8-4.1s1.8,1.1,1.8,4.4C119.2,35.2,118.7,36.3,117.4,36.3z"></path>
		<path class="st0" d="M127.8,30.8c-1.3,0.3-2.1,0.6-2.6,1c-0.9,0.6-1.3,1.7-1.3,3.2c0,2.5,1.2,3.8,3.4,3.8c1.5,0,2.6-0.6,3.2-1.9    c0,0.5,0.1,1.1,0.2,1.6h3.3c-0.3-0.5-0.4-1.4-0.4-2.8v-0.3v-5.8v-0.5c0-1.8-0.3-2.5-1.1-3.1s-2-0.9-3.5-0.9    c-1.8,0-3.1,0.4-3.9,1.4c-0.6,0.6-0.9,1.5-0.9,2.9h3v-0.1c0-1.4,0.5-2.1,1.6-2.1c1,0,1.5,0.5,1.5,1.6    C130.5,30.1,130.3,30.2,127.8,30.8z M130.6,31.8c-0.1,0.3-0.1,0.7-0.1,1.3v0.8c0,1.8-0.6,2.6-1.9,2.6c-0.9,0-1.4-0.7-1.4-1.8    s0.4-1.7,1.5-2.1l0.7-0.2C130,32.2,130.3,32,130.6,31.8z"></path>
		<path class="st0" d="M140.7,38.8c1.8,0,2.8-0.3,3.7-1.3c0.8-0.9,1.2-2.1,1.2-4.1h-3.1c0,2.2-0.5,3.1-1.7,3.1    c-1.4,0-1.8-1.1-1.8-4.7c0-3.3,0.5-4.5,1.8-4.5c1.1,0,1.5,0.7,1.6,2.6h3.2c0-3.4-1.5-4.9-4.8-4.9c-3.6,0-5.1,2.1-5.1,6.9    C135.6,37,137.1,38.8,140.7,38.8z"></path>
		<path class="st0" d="M148,35.2c0,2.8,0.6,3.5,3.3,3.5c0.9,0,1.3,0,2-0.2v-2.3c-0.3,0.1-0.4,0.1-0.7,0.1c-1,0-1.3-0.3-1.3-1.2v-0.3    v-7h2v-2.3h-2v-3.7H148v3.8h-1.7v2.3h1.7V35.2z"></path>
		<path class="st0" d="M164.4,31.2h1.4c2.2,0,2.5,0.4,2.6,3.4l0.1,1.4c0,1.4,0.2,2.1,0.4,2.5h3.9v-0.1c-0.6-0.3-0.7-0.7-0.8-2.6    l-0.1-1.4c-0.1-1.6-0.2-2.3-0.5-3c-0.4-0.8-1.1-1.2-2.3-1.4c1.9-0.4,2.9-1.8,2.9-4.2c0-1.5-0.4-2.7-1.3-3.5    c-0.8-0.8-1.9-1.1-4.1-1.1h-5.7v17.3h3.5L164.4,31.2L164.4,31.2z M164.4,23.8h1.4c1.9,0,2.7,0.7,2.7,2.4c0,1.8-0.8,2.6-2.7,2.6    h-1.4V23.8z"></path>
		<path class="st0" d="M183.1,34.1H180c-0.1,1.7-0.6,2.6-1.7,2.6c-1.3,0-1.8-1-1.8-4.1v-0.2h6.7v-0.7c0-4.8-1.4-6.6-4.9-6.6    c-3.7,0-5.1,2-5.1,6.9s1.4,6.9,5.1,6.9C181.4,38.8,183.1,37.2,183.1,34.1z M176.6,30.4c0-2.2,0.5-3.1,1.8-3.1    c1.2,0,1.6,0.8,1.6,3.1v0.1L176.6,30.4L176.6,30.4z"></path>
		<path class="st0" d="M192.7,31.5c-0.6-0.4-1.4-0.7-3.1-1.3c-1.3-0.4-1.7-0.8-1.7-1.7c0-0.9,0.6-1.4,1.6-1.4c1.1,0,1.5,0.5,1.5,1.8    v0.2h3V29c0-0.8,0-1-0.2-1.6c-0.4-1.6-1.9-2.4-4.3-2.4c-3,0-4.7,1.4-4.7,3.9c0,2,0.9,3,3.3,3.9l1.6,0.6c1,0.3,1.4,0.8,1.4,1.7    c0,1-0.7,1.6-1.7,1.6c-1.2,0-1.7-0.7-1.7-2.2v-0.2h-3v0.3c0,3,1.4,4.2,4.7,4.2c3.2,0,4.9-1.5,4.9-4.2    C194.2,33.2,193.6,32.1,192.7,31.5z"></path>
		<rect x="196" y="21.2" class="st0" width="3.3" height="2.9"></rect>
		<rect x="196" y="25.4" class="st0" width="3.3" height="13.1"></rect>
		<path class="st0" d="M209.4,31.5c-0.6-0.4-1.4-0.7-3.1-1.3c-1.3-0.4-1.7-0.8-1.7-1.7c0-0.9,0.6-1.4,1.6-1.4c1.1,0,1.5,0.5,1.5,1.8    v0.2h3V29c0-0.8,0-1-0.2-1.6c-0.4-1.6-1.9-2.4-4.3-2.4c-3,0-4.7,1.4-4.7,3.9c0,2,0.9,3,3.3,3.9l1.6,0.6c1,0.3,1.4,0.8,1.4,1.7    c0,1-0.7,1.6-1.7,1.6c-1.2,0-1.7-0.7-1.7-2.2v-0.2h-3v0.3c0,3,1.4,4.2,4.7,4.2c3.2,0,4.9-1.5,4.9-4.2    C210.9,33.2,210.4,32.1,209.4,31.5z"></path>
		<path class="st0" d="M212.9,35.2c0,2.8,0.6,3.5,3.3,3.5c0.9,0,1.3,0,2-0.2v-2.3c-0.3,0.1-0.4,0.1-0.7,0.1c-1,0-1.3-0.3-1.3-1.2    v-0.3v-7h2v-2.3h-2v-3.7h-3.3v3.8h-1.7v2.3h1.7V35.2z"></path>
		<path class="st0" d="M225.9,36.9c0,0.5,0.1,1.1,0.2,1.6h3.2c-0.3-0.5-0.4-1.4-0.4-2.8v-0.3v-5.8v-0.5c0-1.8-0.3-2.5-1.1-3.1    s-2-0.9-3.5-0.9c-1.8,0-3.1,0.4-3.9,1.4c-0.6,0.6-0.9,1.5-0.9,2.9h3v-0.1c0-1.4,0.5-2.1,1.6-2.1c1,0,1.5,0.5,1.5,1.6    c0,1.2-0.2,1.3-2.7,2c-1.3,0.3-2.1,0.6-2.6,1c-0.9,0.6-1.3,1.7-1.3,3.2c0,2.5,1.2,3.8,3.4,3.8C224.1,38.9,225.2,38.2,225.9,36.9z     M223.9,36.5c-0.9,0-1.4-0.7-1.4-1.8s0.4-1.7,1.5-2.1l0.7-0.2c0.6-0.2,0.9-0.3,1.1-0.6c-0.1,0.3-0.1,0.7-0.1,1.3v0.8    C225.8,35.7,225.2,36.5,223.9,36.5z"></path>
		<path class="st0" d="M237.8,30.2v8.3h3.3v-9.1v-0.5c0-1.4-0.2-2.1-0.7-2.8c-0.5-0.7-1.5-1.1-2.6-1.1c-1.5,0-2.7,0.7-3.4,2    c0-0.4,0-0.7,0-1.2v-0.4h-3.2v13.1h3.3v-8.6c0-1.4,0.6-2.2,1.7-2.2C237.4,27.7,237.8,28.2,237.8,30.2z"></path>
		<path class="st0" d="M247.3,38.7c0.9,0,1.3,0,2-0.2v-2.3c-0.3,0.1-0.4,0.1-0.7,0.1c-1,0-1.3-0.3-1.3-1.2v-0.3v-7h2v-2.3h-2v-3.7    H244v3.8h-1.7v2.3h1.7v7.4C244,38,244.6,38.7,247.3,38.7z"></path>
		<path class="st0" d="M100.2,51.9c0,0.2-0.1,0.5-0.1,0.9c-0.1,0.8-0.2,1.5-0.3,2.1c-0.2,1.4-0.2,1.6-0.2,2.5h-0.1    c-0.1-1.3-0.3-3.2-0.6-5.3l-1.5-8.6H94L92.6,52c-0.3,2-0.6,4-0.6,5.3h-0.1c0-1.3-0.1-1.8-0.2-2.7l-0.3-2.1l-0.1-0.9L90,43.5h-3.5    l3.2,17.3h3.9l1.3-8c0.3-2,0.6-4.3,0.6-5.4h0.1c0.1,1.3,0.1,1.7,0.2,2.6l0.4,2.8l0.1,0.9l1.3,7.2h3.9l3.2-17.3h-3.4L100.2,51.9z"></path>
		<rect x="106.4" y="43.5" class="st0" width="3.3" height="2.9"></rect>
		<rect x="106.4" y="47.7" class="st0" width="3.3" height="13.1"></rect>
		<path class="st0" d="M118.8,47.4c-1.5,0-2.7,0.7-3.4,2c0.1-0.4,0.1-0.7,0.1-1.2v-0.4h-3.2v13.1h3.3v-8.6c0-1.4,0.6-2.2,1.7-2.2    s1.4,0.5,1.4,2.5v8.3h3.3v-9.1v-0.5c0-1.4-0.2-2.1-0.7-2.8C120.8,47.8,119.9,47.4,118.8,47.4z"></path>
		<path class="st0" d="M130.8,48c0,0.4,0,0.9,0.1,1.2c-0.5-1.2-1.5-1.8-2.9-1.8c-1.1,0-2.1,0.4-2.8,1.3c-0.9,1.1-1.2,2.7-1.2,5.6    c0,4.8,1.2,6.8,4,6.8c1.5,0,2.4-0.6,3.1-2.1c0,0.4-0.1,0.6-0.1,1.1v0.6h3.2V43.5h-3.3V48H130.8z M129.1,58.6    c-1.4,0-1.8-1.1-1.8-4.4c0-3.3,0.4-4.3,1.8-4.3c1.4,0,1.8,1,1.8,4.3C130.9,57.5,130.4,58.6,129.1,58.6z"></path>
		<path class="st0" d="M141,47.4c-1.5,0-2.6,0.3-3.4,1c-1.3,1.1-1.8,2.8-1.8,5.9c0,4.9,1.4,6.8,5.1,6.8c3.7,0,5.3-2,5.3-6.9    C146.1,49.3,144.7,47.4,141,47.4z M140.9,58.9c-1.3,0-1.8-1.1-1.8-4.6s0.4-4.6,1.9-4.6c1.3,0,1.7,1.1,1.7,4.5    C142.7,57.7,142.2,58.9,140.9,58.9z"></path>
		<path class="st0" d="M158.7,54.9l-0.1,0.4l-0.2,1.5c-0.1,0.4-0.1,0.5-0.1,1.3h-0.1c-0.1-1-0.1-1.5-0.4-2.7c0-0.2,0-0.3,0-0.4    l-1.3-7.2h-3.6l-1.1,6.2l-0.1,0.5l-0.3,2l-0.2,1.4v0.2h-0.1v-0.2c0-0.5-0.1-1-0.1-1.4l-0.3-1.9l-0.1-0.4l-1-6.3h-3.4l2.9,13.1h3.9    l1-5.5c0-0.1,0.1-0.3,0.1-0.6c0.1-0.9,0.2-1.6,0.3-2.3c0.1-0.9,0.1-1.2,0.2-2h0.1c0.1,1.3,0.3,3.6,0.6,5l1.1,5.3h3.8l2.8-13.1    h-3.3L158.7,54.9z"></path>
		<path class="st0" d="M172,53.8c-0.6-0.4-1.4-0.7-3.1-1.3c-1.3-0.4-1.7-0.8-1.7-1.7s0.6-1.4,1.6-1.4c1.1,0,1.5,0.5,1.5,1.8v0.2h3    v-0.1c0-0.8,0-1-0.2-1.6c-0.4-1.6-1.9-2.4-4.3-2.4c-3,0-4.7,1.4-4.7,3.9c0,2,0.9,3,3.3,3.9l1.6,0.6c1,0.3,1.4,0.8,1.4,1.7    c0,1-0.7,1.6-1.7,1.6c-1.2,0-1.7-0.7-1.7-2.2v-0.2h-3v0.3c0,3,1.4,4.2,4.7,4.2c3.2,0,4.9-1.5,4.9-4.2    C173.5,55.5,173,54.4,172,53.8z"></path>
		<path class="st0" d="M192.5,52.5h-3c0,1-0.3,2.1-0.6,2.6l-2.6-3.6c2.1-1.4,3-2.7,3-4.4c0-2.2-1.7-3.6-4.4-3.6s-4.4,1.5-4.4,3.8    c0,1.1,0.3,1.9,1.6,3.8l0.1,0.2c-2.4,1.6-3.4,3.2-3.4,5.2c0,2.9,2,4.8,5.2,4.8c1.8,0,3.2-0.5,4.3-1.6l0.9,1.3h3.7l-2.3-3.2    C191.7,56.5,192.4,54.3,192.5,52.5z M184.8,45.6c0.9,0,1.5,0.5,1.5,1.4c0,0.8-0.4,1.5-1.7,2.5c-0.9-1.1-1.3-2-1.3-2.5    C183.4,46.1,184,45.6,184.8,45.6z M184.6,58.5c-1.4,0-2.5-1.1-2.5-2.5c0-1.1,0.6-1.9,1.8-2.8l3,4.1    C186.1,58.1,185.4,58.5,184.6,58.5z"></path>
		<path class="st0" d="M203.7,43.5H199v17.3h5.4c2.3,0,3.6-0.5,4.6-1.7c0.5-0.6,0.9-1.4,1-2.1c0.3-1.3,0.5-3.3,0.5-5.3    c0-3.7-0.5-5.6-1.9-6.9C207.6,43.8,206.3,43.5,203.7,43.5z M206,57.5c-0.4,0.5-1.1,0.7-2.4,0.7h-1.1V46.1h0.8c1.4,0,2,0.1,2.5,0.5    c0.8,0.7,1.1,2.1,1.1,5.2C206.9,55,206.7,56.6,206,57.5z"></path>
		<path class="st0" d="M217.3,47.4c-1.5,0-2.6,0.3-3.4,1c-1.3,1.1-1.8,2.8-1.8,5.9c0,4.9,1.4,6.8,5.1,6.8c3.7,0,5.3-2,5.3-6.9    C222.4,49.3,221,47.4,217.3,47.4z M217.2,58.9c-1.3,0-1.8-1.1-1.8-4.6s0.4-4.6,1.8-4.6c1.3,0,1.7,1.1,1.7,4.5    C219,57.7,218.6,58.9,217.2,58.9z"></path>
		<path class="st0" d="M229,47.4c-1.5,0-2.6,0.3-3.4,1c-1.3,1.1-1.8,2.8-1.8,5.9c0,4.9,1.4,6.8,5.1,6.8c3.8,0,5.3-2,5.3-6.9    C234.1,49.3,232.7,47.4,229,47.4z M228.9,58.9c-1.3,0-1.8-1.1-1.8-4.6s0.4-4.6,1.8-4.6c1.3,0,1.7,1.1,1.7,4.5    C230.7,57.7,230.3,58.9,228.9,58.9z"></path>
		<path class="st0" d="M239.2,49.9c0-0.4,0.1-1,0.1-1.6v-0.5H236v13.1h3.4v-7.5c0-1.8,0.9-2.7,2.7-2.7c0.3,0,0.5,0,0.9,0.1v-3.2    c-0.3,0-0.4,0-0.5,0C241,47.5,239.9,48.3,239.2,49.9z"></path>
		<path class="st0" d="M252.4,53.8c-0.6-0.4-1.4-0.7-3.1-1.3c-1.3-0.4-1.7-0.8-1.7-1.7s0.6-1.4,1.6-1.4c1.1,0,1.5,0.5,1.5,1.8v0.2h3    v-0.1c0-0.8,0-1-0.2-1.6c-0.4-1.6-1.9-2.4-4.3-2.4c-3,0-4.7,1.4-4.7,3.9c0,2,0.9,3,3.3,3.9l1.6,0.6c1,0.3,1.4,0.8,1.4,1.7    c0,1-0.6,1.6-1.7,1.6c-1.2,0-1.8-0.7-1.8-2.2v-0.2h-3v0.3c0,3,1.4,4.2,4.7,4.2c3.2,0,4.9-1.5,4.9-4.2    C253.9,55.5,253.3,54.4,252.4,53.8z"></path>
	</g>
</g>
</svg>