<svg xmlns="http://www.w3.org/2000/svg" width="146" height="66.888" viewBox="0 0 146 66.888"><g transform="translate(-97.31 -70.21)"><path d="M141,108.213V87.863c0-.079.057-3.5.182-4.372a13.627,13.627,0,0,1,1.806-5.121,16.591,16.591,0,0,1,4.985-5.224,16.284,16.284,0,0,1,9.459-2.9H184.05c.114,0,.159,0,.148.148v5.678c0,.409,0,.363-.363.363H155.683a.784.784,0,0,0-.363,0h-.3a.352.352,0,0,0-.216,0,1.409,1.409,0,0,0-.307,0,.114.114,0,0,0-.1,0,8.358,8.358,0,0,0-2.555.738,7.484,7.484,0,0,0-1.226.727,7.36,7.36,0,0,0-.568.477c-.068.068-.454.42-.477.454l-.148.17a3.714,3.714,0,0,0-.466.579.091.091,0,0,0,0,.079l-.057.079h0a1.6,1.6,0,0,0-.273.443l-.227.375a6.212,6.212,0,0,0-.375.784h0a3.679,3.679,0,0,0-.216.59.477.477,0,0,0-.091.238v.068h-.057a1.579,1.579,0,0,0-.193.693h0c-.079,0-.079.068,0,.136h0a1.329,1.329,0,0,0-.148.511.284.284,0,0,0,0,.193.273.273,0,0,0,0,.17,4.34,4.34,0,0,0-.159.636v.091a19,19,0,0,0-.318,2.771c0,.715,0,1.431,0,2.135v4.156c0,1.7-.057,7-.057,7.075V105.1c0,.057,0,.114.057.136h37.3v6.257H144.929a5.053,5.053,0,0,1-1.306-.136A3.293,3.293,0,0,1,141.148,109a7.525,7.525,0,0,1-.148-.784Z" transform="translate(5.923 0.005)" fill="#fff"></path><path d="M225.615,90v1.84a27.212,27.212,0,0,1-.216,3.032,31.179,31.179,0,0,1-.647,3.679,21.768,21.768,0,0,1-1.556,4.315,15.9,15.9,0,0,1-2.646,3.94,14.535,14.535,0,0,1-6.348,4.02,14.39,14.39,0,0,1-2.839.613,18.672,18.672,0,0,1-2.271.136H183.848c-.034,0,.079-.17.159-.227l2.146-1.851,2.43-2.078,2.691-2.271.409-.352a.9.9,0,0,1,.75-.182l5.95,1.136,5.837,1.079c1.442.261,2.873.522,4.327.715.1,0,.2.1.341,0-.216-.114-.409-.238-.6-.329l-1.476-.659-4.02-1.783-4.826-2.135-2.487-1.136a.807.807,0,0,1-.25-.148l.261-.307,1.408-1.374,3.407-3.407c1.136-1.136,2.4-2.373,3.577-3.566a.908.908,0,0,1,.9-.25c2.385.545,4.781,1.067,7.166,1.6l6.575,1.454,1.647.363a.613.613,0,0,0,.545-.1c-.818-.341-1.624-.636-2.43-.943l-2.407-.931-2.43-.931-2.407-.931L208.6,91.1l-2.4-.92a.114.114,0,0,1,0-.125l2.578-2.635,2.2-2.271L212.9,83.2l2.135-2.18,1.919-1.976,2.135-2.192,1.93-1.976h0c.125-.136.125-.136,0-.25s-.1-.125-.238,0l-2.169,1.726-4.122,3.3-3.872,3.089-2.873,2.271a.106.106,0,0,1-.148,0V84.07c0-1.317-.057-2.623-.1-3.94V78.415c0-1.067,0-2.146-.079-3.214V74.066c0-.079,0-.136-.114-.148s-.114,0-.136.125c-.114.659-.25,1.306-.363,1.965-.261,1.363-.522,2.737-.772,4.1l-.886,4.679c-.227,1.215-.454,2.43-.693,3.634a1.045,1.045,0,0,1-.375.659l-1.942,1.635-2.8,2.362-3.146,2.635-1.612,1.5a.341.341,0,0,1-.216.125,5.173,5.173,0,0,1,0-.84c0-.375,0-.749,0-1.136,0-1.136.091-2.158.125-3.236l.068-2.021c0-1.136.079-2.158.125-3.236,0-.681,0-1.363.068-2.044,0-1.056.079-2.124.114-3.18V80.345a.125.125,0,0,0-.114-.1.1.1,0,0,0-.091.091l-.136.715c-.193,1.136-.386,2.2-.591,3.3-.238,1.374-.488,2.759-.738,4.134l-.715,4c-.25,1.419-.488,2.85-.738,4.27-.1.59-.17,1.136-.329,1.771a4.894,4.894,0,0,1-1.181,2.089l-2.5,2.612c-.772.806-1.533,1.624-2.271,2.441l-2.975,3.157-.363.409h-.091V85.955a19.954,19.954,0,0,1,.329-2.839,14.285,14.285,0,0,1,1.045-3.2,13.457,13.457,0,0,1,2.43-3.577,16.228,16.228,0,0,1,3.736-2.975,20.316,20.316,0,0,1,6.53-2.419,28.887,28.887,0,0,1,3.134-.432c1.136-.091,2.18-.136,3.282-.148,7.62-.068,15.239,0,22.859,0h.125c.068,0,.114,0,.114.1V84.888" transform="translate(11.485 0.017)" fill="#81b44b"></path><path d="M120.5,111.715H100.864a3.645,3.645,0,0,1-3.475-2.952,3.407,3.407,0,0,1-.08-.749q0-4.315,0-8.619V85.563a13.763,13.763,0,0,1,1.919-7.007,16.557,16.557,0,0,1,6.461-6.314,15.9,15.9,0,0,1,4.451-1.635,19.509,19.509,0,0,1,3.259-.4h26.766c.375,0,.329,0,.329.341v5.6c0,.307,0,.284-.3.284H112.175a12.162,12.162,0,0,0-3.055.488,7.12,7.12,0,0,0-4.077,3.27,12.548,12.548,0,0,0-1.578,3.975,26.117,26.117,0,0,0-.5,3.407c0,.193,0,.193.182.2H140.11c.42,0,.363-.057.363.352v5.678c0,.17,0,.17-.159.17H102.84c-.375,0-.329,0-.329.318v10.879c0,.352,0,.318.329.318h37.27c.454,0,.4,0,.4.409v5.61c0,.2,0,.2-.2.2Z" fill="#fff"></path><path d="M100.787,126.466,97.88,115.36h2.339l1.715,7.279,1.578-7.279h2.271l1.51,7.279,1.771-7.279h2.373l-2.953,11.106h-2.271l-1.578-7.143-1.556,7.143Z" transform="translate(0.077 6.121)" fill="#fff"></path><path d="M111,114.325V111.6h2.419v2.725Zm0,12.616V115.836h2.419v11.106Z" transform="translate(1.856 5.612)" fill="#fff"></path><path d="M123.567,126.492h-2.419v-5.678a11.911,11.911,0,0,0-.136-2.271,1.567,1.567,0,0,0-.511-.874,1.328,1.328,0,0,0-.84-.3,1.715,1.715,0,0,0-1.136.386,2.089,2.089,0,0,0-.693,1.136,11.629,11.629,0,0,0-.193,2.6v5.042H115.22V115.431h2.271v1.613a4.474,4.474,0,0,1,1.351-1.408,3,3,0,0,1,1.658-.466,2.9,2.9,0,0,1,1.783.545,2.816,2.816,0,0,1,1,1.419,8.267,8.267,0,0,1,.284,2.5Z" transform="translate(2.428 6.096)" fill="#fff"></path><path d="M133.138,126.968h-2.271v-1.624a3.929,3.929,0,0,1-1.226,1.465,2.828,2.828,0,0,1-1.544.477,3.27,3.27,0,0,1-2.669-1.522,7.256,7.256,0,0,1-1.136-4.361,7.052,7.052,0,0,1,1.136-4.3,3.316,3.316,0,0,1,2.725-1.442,2.759,2.759,0,0,1,1.431.386,3.872,3.872,0,0,1,1.215,1.136V111.66h2.419Zm-6.427-5.791a7.45,7.45,0,0,0,.25,2.271,2.373,2.373,0,0,0,.738,1.136,1.59,1.59,0,0,0,2.441-.488,4.542,4.542,0,0,0,.59-2.589,5.178,5.178,0,0,0-.568-2.771,1.658,1.658,0,0,0-2.873,0,4.361,4.361,0,0,0-.579,2.4Z" transform="translate(3.656 5.62)" fill="#fff"></path><path d="M133.682,120.785a6.813,6.813,0,0,1,.647-2.975,4.758,4.758,0,0,1,1.692-2.01,4.247,4.247,0,0,1,2.362-.67,4.043,4.043,0,0,1,3.407,1.715,6.666,6.666,0,0,1,1.249,4.031,7.3,7.3,0,0,1-.647,3.111,5.008,5.008,0,0,1-1.715,2.078,4.168,4.168,0,0,1-2.271.693A4.27,4.27,0,0,1,135,125.214,6.552,6.552,0,0,1,133.682,120.785Zm2.476.159a4.157,4.157,0,0,0,.659,2.555,1.874,1.874,0,0,0,3.157,0,4.315,4.315,0,0,0,.647-2.578,4.133,4.133,0,0,0-.659-2.532,1.874,1.874,0,0,0-3.157,0,4.236,4.236,0,0,0-.647,2.555Z" transform="translate(4.929 6.09)" fill="#fff"></path><path d="M145.5,126.466,142.59,115.36h2.351l1.7,7.279,1.59-7.279H150.5l1.522,7.279,1.76-7.279h2.373l-2.953,11.106h-2.271l-1.578-7.143-1.556,7.143Z" transform="translate(6.139 6.121)" fill="#fff"></path><path d="M159.23,123.342l2.419-.454a1.851,1.851,0,0,0,1.953,1.749,2.124,2.124,0,0,0,1.295-.329,1.067,1.067,0,0,0,.432-.874.874.874,0,0,0-.193-.579,1.794,1.794,0,0,0-.784-.363,10.674,10.674,0,0,1-3.781-1.5,3.089,3.089,0,0,1-1-2.441,3.27,3.27,0,0,1,.988-2.487,3.952,3.952,0,0,1,2.85-.931,4.542,4.542,0,0,1,2.725.693,3.85,3.85,0,0,1,1.306,2.271l-2.271.511a1.578,1.578,0,0,0-1.658-1.351,2.374,2.374,0,0,0-1.272.25.784.784,0,0,0-.375.67.738.738,0,0,0,.341.613,10.584,10.584,0,0,0,2.146.761,5.894,5.894,0,0,1,2.748,1.374,3.1,3.1,0,0,1,.715,2.146,3.486,3.486,0,0,1-1.136,2.657,4.213,4.213,0,0,1-3.043,1.045,4.542,4.542,0,0,1-2.9-.874,4.236,4.236,0,0,1-1.51-2.555Z" transform="translate(8.395 6.089)" fill="#fff"></path><path d="M167.57,115.36h2.578l2.169,7.949,2.135-7.949h2.5l-3.214,10.686-.625,2.089a6.223,6.223,0,0,1-.806,1.715,2.828,2.828,0,0,1-1.022.84,3.679,3.679,0,0,1-1.544.284,5.678,5.678,0,0,1-1.374-.17l-.2-2.271a4.36,4.36,0,0,0,1.011.136,1.544,1.544,0,0,0,1.136-.454,3.589,3.589,0,0,0,.738-1.681Z" transform="translate(9.526 6.121)" fill="#fff"></path><path d="M176.45,123.341l2.419-.454a1.828,1.828,0,0,0,1.942,1.749,2.124,2.124,0,0,0,1.295-.329,1.033,1.033,0,0,0,.432-.874.863.863,0,0,0-.182-.579,1.783,1.783,0,0,0-.795-.363,10.583,10.583,0,0,1-3.77-1.5,3.1,3.1,0,0,1-1.011-2.441,3.271,3.271,0,0,1,.988-2.487,3.986,3.986,0,0,1,2.85-.931,4.542,4.542,0,0,1,2.725.693,3.782,3.782,0,0,1,1.306,2.271l-2.271.511a1.578,1.578,0,0,0-1.715-1.34,2.328,2.328,0,0,0-1.26.25.8.8,0,0,0-.386.67.749.749,0,0,0,.352.613,10.016,10.016,0,0,0,2.146.761,5.837,5.837,0,0,1,2.737,1.374,3.1,3.1,0,0,1,.715,2.146,3.52,3.52,0,0,1-1.136,2.657,4.247,4.247,0,0,1-3.055,1.045,4.474,4.474,0,0,1-2.884-.874A4.179,4.179,0,0,1,176.45,123.341Z" transform="translate(10.73 6.089)" fill="#fff"></path><path d="M190.094,115.829v2.339h-1.669v4.542a8.777,8.777,0,0,0,.079,1.692.579.579,0,0,0,.591.42,2.748,2.748,0,0,0,.965-.284l.2,2.271a4.076,4.076,0,0,1-1.885.432,2.351,2.351,0,0,1-1.476-.432,2.146,2.146,0,0,1-.749-1.272,13.626,13.626,0,0,1-.148-2.476v-4.849H184.87v-2.339h1.136V113.6l2.419-1.7v3.929Z" transform="translate(11.871 5.652)" fill="#fff"></path><path d="M196.337,122.937l2.4.488a4.883,4.883,0,0,1-1.5,2.487,3.906,3.906,0,0,1-2.476.806,3.759,3.759,0,0,1-3.123-1.351,6.722,6.722,0,0,1-1.295-4.406,7.075,7.075,0,0,1,1.306-4.463,3.464,3.464,0,0,1,2.862-1.408,3.634,3.634,0,0,1,3.066,1.442,7.949,7.949,0,0,1,1.283,4.883v.341h-6.041a3.407,3.407,0,0,0,.59,2.044,1.7,1.7,0,0,0,1.385.727C195.554,124.573,196.076,124.073,196.337,122.937Zm.125-2.987a3.282,3.282,0,0,0-.556-1.953,1.533,1.533,0,0,0-2.532,0,2.975,2.975,0,0,0-.522,1.93Z" transform="translate(12.611 6.084)" fill="#fff"></path><path d="M199.39,115.391h2.271v1.51a4.418,4.418,0,0,1,1.306-1.329,2.862,2.862,0,0,1,1.533-.443,2.578,2.578,0,0,1,1.522.432,3.169,3.169,0,0,1,1.056,1.329,4.7,4.7,0,0,1,1.306-1.329,2.691,2.691,0,0,1,1.476-.432,2.884,2.884,0,0,1,1.613.443,2.8,2.8,0,0,1,1.022,1.272,6.813,6.813,0,0,1,.352,2.544V126.5h-2.419v-6.359a5.462,5.462,0,0,0-.3-2.271,1.022,1.022,0,0,0-.977-.545,1.476,1.476,0,0,0-1.306.772,6.177,6.177,0,0,0-.488,3.009v5.337h-2.419v-6.1a8.642,8.642,0,0,0-.193-2.271,1.033,1.033,0,0,0-1.056-.693,1.533,1.533,0,0,0-.988.352,1.919,1.919,0,0,0-.647,1.045,9.083,9.083,0,0,0-.2,2.271v5.405h-2.419Z" transform="translate(13.84 6.09)" fill="#fff"></path><path d="M212.57,123.342l2.419-.454a1.84,1.84,0,0,0,1.942,1.749,2.192,2.192,0,0,0,1.306-.329,1.056,1.056,0,0,0,.42-.874.863.863,0,0,0-.182-.579,1.783,1.783,0,0,0-.795-.363,10.584,10.584,0,0,1-3.77-1.5,3.089,3.089,0,0,1-1-2.442,3.259,3.259,0,0,1,.977-2.487,4,4,0,0,1,2.862-.931,4.452,4.452,0,0,1,2.714.693,3.85,3.85,0,0,1,1.317,2.271l-2.271.511a1.578,1.578,0,0,0-1.715-1.34,2.351,2.351,0,0,0-1.272.25.784.784,0,0,0-.375.67.738.738,0,0,0,.341.613,10.3,10.3,0,0,0,2.112.727,5.78,5.78,0,0,1,2.737,1.374,3.1,3.1,0,0,1,.715,2.146,3.475,3.475,0,0,1-1.136,2.657,4.224,4.224,0,0,1-3.055,1.045,4.542,4.542,0,0,1-2.884-.874A4.179,4.179,0,0,1,212.57,123.342Z" transform="translate(15.627 6.089)" fill="#fff"></path><path d="M223.52,110.82a2.748,2.748,0,0,1,1.51.466,3.6,3.6,0,0,1,1.136,1.374,4.542,4.542,0,0,1,0,3.952,3.509,3.509,0,0,1-1.136,1.374,2.691,2.691,0,0,1-1.51.477,2.737,2.737,0,0,1-1.522-.477,3.509,3.509,0,0,1-1.136-1.374,4.633,4.633,0,0,1,0-3.952A3.6,3.6,0,0,1,222,111.286,2.805,2.805,0,0,1,223.52,110.82Zm0,.749a2.271,2.271,0,0,0-1.215.375,2.828,2.828,0,0,0-.943,1.136,3.577,3.577,0,0,0-.352,1.59,3.509,3.509,0,0,0,.352,1.59,2.873,2.873,0,0,0,.943,1.136,2.271,2.271,0,0,0,1.215.375,2.18,2.18,0,0,0,1.215-.375,2.782,2.782,0,0,0,.943-1.136,3.52,3.52,0,0,0,.363-1.59,3.588,3.588,0,0,0-.363-1.59,2.737,2.737,0,0,0-.943-1.136,2.18,2.18,0,0,0-1.215-.375ZM222.1,116.7v-4.054h1.874a.942.942,0,0,1,.59.352,1.238,1.238,0,0,1,.227.761,1.2,1.2,0,0,1-.239.772,1.022,1.022,0,0,1-.659.375,1.011,1.011,0,0,1,.341.273q.114.182.375.681l.386.818h-.829l-.284-.659a2.555,2.555,0,0,0-.466-.829.659.659,0,0,0-.466-.17h-.17V116.7Zm.681-2.271h.261a2.668,2.668,0,0,0,.681,0,.466.466,0,0,0,.261-.182.624.624,0,0,0,.091-.329.545.545,0,0,0-.1-.329.5.5,0,0,0-.261-.182,3.646,3.646,0,0,0-.67,0h-.261Z" transform="translate(16.691 5.506)" fill="#fff"></path></g></svg>